<svg width="20" height="18" viewBox="0 0 20 18" fill="none" xmlns="http://www.w3.org/2000/svg">
<path d="M16 1L19 4M19 4L16 7M19 4L14 4C12.9188 3.99826 11.8664 4.34858 11.002 4.998M16 17L19 14M19 14L16 11M19 14L14 14C12.6739 14 11.4021 13.4732 10.4645 12.5355C9.52678 11.5979 9 10.3261 9 9C9 7.67392 8.47322 6.40215 7.53553 5.46447C6.59785 4.52678 5.32608 4 4 4H1M7 13.001C6.13494 13.6508 5.08192 14.0014 4 14H1" stroke="black" stroke-width="2" stroke-linecap="round" stroke-linejoin="round"/>
</svg>
