<svg width="24" height="24" viewBox="0 0 24 24" fill="none" xmlns="http://www.w3.org/2000/svg">
<path d="M7 12L6.29289 11.2929C5.90237 11.6834 5.90237 12.3166 6.29289 12.7071L7 12ZM16.7071 3.70711C17.0976 3.31658 17.0976 2.68342 16.7071 2.29289C16.3166 1.90237 15.6834 1.90237 15.2929 2.29289L16.7071 3.70711ZM15.2929 21.7071C15.6834 22.0976 16.3166 22.0976 16.7071 21.7071C17.0976 21.3166 17.0976 20.6834 16.7071 20.2929L15.2929 21.7071ZM7.70711 12.7071L16.7071 3.70711L15.2929 2.29289L6.29289 11.2929L7.70711 12.7071ZM6.29289 12.7071L15.2929 21.7071L16.7071 20.2929L7.70711 11.2929L6.29289 12.7071Z" fill="#FFF"/>
</svg>
