<svg width="28" height="13" viewBox="0 0 28 13" fill="none" xmlns="http://www.w3.org/2000/svg">
<path fill-rule="evenodd" clip-rule="evenodd" d="M14.2647 10.7H4.39163C3.45985 10.7 2.70361 9.9476 2.70361 9.0192V4.6808C2.70361 3.7535 3.45985 3 4.39163 3H14.2647C15.1965 3 15.9516 3.7535 15.9516 4.6808V9.0192C15.9516 9.9476 15.1965 10.7 14.2647 10.7Z" fill="white"/>
<path opacity="0.5" fill-rule="evenodd" clip-rule="evenodd" d="M23.6801 10.0565C23.6801 11.019 22.8962 11.8 21.9302 11.8H3.34991C2.38391 11.8 1.60007 11.019 1.60007 10.0565V3.64349C1.60007 2.68099 2.38391 1.89999 3.34991 1.89999H21.9302C22.8962 1.89999 23.6801 2.68099 23.6801 3.64349V10.0565ZM22.2946 0.799988H2.98561C1.61113 0.799988 0.496094 1.91099 0.496094 3.28049V10.4195C0.496094 11.789 1.61113 12.9 2.98561 12.9H22.2946C23.669 12.9 24.7841 11.789 24.7841 10.4195V3.28049C24.7841 1.91099 23.669 0.799988 22.2946 0.799988Z" fill="white"/>
<path opacity="0.5" fill-rule="evenodd" clip-rule="evenodd" d="M25.6123 9.04999V4.64999C26.5264 4.64999 27.2683 5.38919 27.2683 6.29999V7.39999C27.2683 8.31189 26.5264 9.04999 25.6123 9.04999Z" fill="white"/>
</svg>
