<svg width="27" height="27" viewBox="0 0 27 27" fill="none" xmlns="http://www.w3.org/2000/svg">
<path d="M1.8335 25.1667L1.12639 24.4596C0.840391 24.7456 0.754836 25.1757 0.909617 25.5494C1.0644 25.923 1.42903 26.1667 1.8335 26.1667V25.1667ZM5.25058 21.7496L5.95769 22.4567C6.34821 22.0662 6.34821 21.433 5.95769 21.0425L5.25058 21.7496ZM8.31498 15.0926C7.76269 15.0926 7.31498 15.5403 7.31498 16.0926C7.31498 16.6449 7.76269 17.0926 8.31498 17.0926V15.0926ZM13.5002 17.0926C14.0524 17.0926 14.5002 16.6449 14.5002 16.0926C14.5002 15.5403 14.0524 15.0926 13.5002 15.0926V17.0926ZM8.31498 9.90742C7.76269 9.90742 7.31498 10.3551 7.31498 10.9074C7.31498 11.4597 7.76269 11.9074 8.31498 11.9074V9.90742ZM18.6853 11.9074C19.2376 11.9074 19.6853 11.4597 19.6853 10.9074C19.6853 10.3551 19.2376 9.90742 18.6853 9.90742V11.9074ZM24.1668 13.5C24.1668 19.391 19.3912 24.1667 13.5002 24.1667V26.1667C20.4958 26.1667 26.1668 20.4956 26.1668 13.5H24.1668ZM2.8335 13.5C2.8335 7.60897 7.60913 2.83334 13.5002 2.83334V0.833344C6.50456 0.833344 0.833496 6.5044 0.833496 13.5H2.8335ZM13.5002 2.83334C19.3912 2.83334 24.1668 7.60897 24.1668 13.5H26.1668C26.1668 6.5044 20.4958 0.833344 13.5002 0.833344V2.83334ZM13.5002 24.1667H1.8335V26.1667H13.5002V24.1667ZM5.95769 21.0425C4.02631 19.1111 2.8335 16.4458 2.8335 13.5H0.833496C0.833496 16.9975 2.25236 20.1656 4.54348 22.4567L5.95769 21.0425ZM2.5406 25.8738L5.95769 22.4567L4.54348 21.0425L1.12639 24.4596L2.5406 25.8738ZM8.31498 17.0926H13.5002V15.0926H8.31498V17.0926ZM8.31498 11.9074H18.6853V9.90742H8.31498V11.9074Z" fill="#96ADFB"/>
</svg>
