<svg width="15" height="16" viewBox="0 0 15 16" fill="none" xmlns="http://www.w3.org/2000/svg">
<rect x="4" y="4.5" width="8" height="8" fill="#96ADFB"/>
<path d="M13.7913 7.53877L12.2667 6.05113V3.8684C12.2667 3.6961 12.1983 3.53087 12.0766 3.40904C11.955 3.28721 11.7899 3.21877 11.6179 3.21877H9.4704L7.95224 1.69216C7.89193 1.63127 7.82017 1.58294 7.74111 1.54996C7.66205 1.51698 7.57725 1.5 7.4916 1.5C7.40596 1.5 7.32116 1.51698 7.2421 1.54996C7.16304 1.58294 7.09128 1.63127 7.03097 1.69216L5.54525 3.21877H3.36534C3.19327 3.21877 3.02825 3.28721 2.90658 3.40904C2.78491 3.53087 2.71655 3.6961 2.71655 3.8684V6.05113L1.19191 7.53877C1.1311 7.59916 1.08283 7.67101 1.0499 7.75017C1.01696 7.82933 1 7.91424 1 8C1 8.08576 1.01696 8.17067 1.0499 8.24983C1.08283 8.32899 1.1311 8.40084 1.19191 8.46123L2.71655 9.98135V12.1316C2.71655 12.3039 2.78491 12.4691 2.90658 12.591C3.02825 12.7128 3.19327 12.7812 3.36534 12.7812H5.54525L7.06341 14.3078C7.12372 14.3687 7.19548 14.4171 7.27454 14.45C7.3536 14.483 7.4384 14.5 7.52404 14.5C7.60969 14.5 7.69449 14.483 7.77355 14.45C7.85261 14.4171 7.92437 14.3687 7.98468 14.3078L9.50284 12.7812H11.6503C11.8224 12.7812 11.9874 12.7128 12.1091 12.591C12.2307 12.4691 12.2991 12.3039 12.2991 12.1316V9.98135L13.8237 8.46123C13.8825 8.39872 13.9283 8.32518 13.9584 8.24485C13.9886 8.16452 14.0026 8.079 13.9996 7.99323C13.9966 7.90745 13.9766 7.82313 13.9409 7.74513C13.9051 7.66712 13.8543 7.59699 13.7913 7.53877ZM11.1637 9.25377C11.1024 9.31394 11.0537 9.38568 11.0202 9.46486C10.9868 9.54403 10.9694 9.62906 10.9691 9.71501V11.482H9.2044C9.11856 11.4823 9.03364 11.4997 8.95457 11.5332C8.8755 11.5667 8.80385 11.6155 8.74376 11.6769L7.4916 12.9306L6.23945 11.6769C6.17936 11.6155 6.10771 11.5667 6.02864 11.5332C5.94957 11.4997 5.86465 11.4823 5.77881 11.482H4.01412V9.71501C4.01376 9.62906 3.99638 9.54403 3.96297 9.46486C3.92956 9.38568 3.88079 9.31394 3.81949 9.25377L2.56733 8L3.81949 6.74623C3.88079 6.68606 3.92956 6.61432 3.96297 6.53514C3.99638 6.45597 4.01376 6.37094 4.01412 6.28499V4.51802H5.77881C5.86465 4.51766 5.94957 4.50025 6.02864 4.4668C6.10771 4.43335 6.17936 4.38451 6.23945 4.32313L7.4916 3.06936L8.74376 4.32313C8.80385 4.38451 8.8755 4.43335 8.95457 4.4668C9.03364 4.50025 9.11856 4.51766 9.2044 4.51802H10.9691V6.28499C10.9694 6.37094 10.9868 6.45597 11.0202 6.53514C11.0537 6.61432 11.1024 6.68606 11.1637 6.74623L12.4159 8L11.1637 9.25377Z" fill="#96ADFB"/>
<path d="M12.8234 7.60973L11.5333 6.35096V4.50403C11.5333 4.35824 11.4755 4.21843 11.3725 4.11534C11.2696 4.01226 11.13 3.95435 10.9844 3.95435H9.16726L7.88267 2.66259C7.83163 2.61107 7.77092 2.57018 7.70402 2.54227C7.63712 2.51437 7.56537 2.5 7.4929 2.5C7.42043 2.5 7.34867 2.51437 7.28177 2.54227C7.21488 2.57018 7.15416 2.61107 7.10313 2.66259L5.84598 3.95435H4.00144C3.85584 3.95435 3.71621 4.01226 3.61326 4.11534C3.51031 4.21843 3.45247 4.35824 3.45247 4.50403V6.35096L2.16238 7.60973C2.11093 7.66083 2.07009 7.72162 2.04222 7.78861C2.01435 7.85559 2 7.92744 2 8C2 8.07256 2.01435 8.14441 2.04222 8.21139C2.07009 8.27838 2.11093 8.33917 2.16238 8.39027L3.45247 9.67653V11.496C3.45247 11.6418 3.51031 11.7816 3.61326 11.8847C3.71621 11.9877 3.85584 12.0457 4.00144 12.0457H5.84598L7.13058 13.3374C7.18161 13.3889 7.24233 13.4298 7.30922 13.4577C7.37612 13.4856 7.44787 13.5 7.52034 13.5C7.59282 13.5 7.66457 13.4856 7.73147 13.4577C7.79836 13.4298 7.85908 13.3889 7.91011 13.3374L9.19471 12.0457H11.0118C11.1574 12.0457 11.297 11.9877 11.4 11.8847C11.5029 11.7816 11.5608 11.6418 11.5608 11.496V9.67653L12.8509 8.39027C12.9006 8.33738 12.9393 8.27515 12.9648 8.20718C12.9904 8.13921 13.0022 8.06685 12.9997 7.99427C12.9971 7.92169 12.9802 7.85034 12.95 7.78434C12.9197 7.71833 12.8767 7.65899 12.8234 7.60973ZM10.6001 9.06089C10.5482 9.11179 10.5069 9.1725 10.4787 9.2395C10.4504 9.30649 10.4357 9.37843 10.4354 9.45116V10.9463H8.94218C8.86955 10.9466 8.7977 10.9613 8.73079 10.9896C8.66388 11.0179 8.60325 11.0593 8.55241 11.1112L7.4929 12.1721L6.43338 11.1112C6.38254 11.0593 6.32191 11.0179 6.255 10.9896C6.1881 10.9613 6.11624 10.9466 6.04361 10.9463H4.55041V9.45116C4.55011 9.37843 4.5354 9.30649 4.50713 9.2395C4.47886 9.1725 4.43759 9.11179 4.38572 9.06089L3.3262 8L4.38572 6.93912C4.43759 6.88821 4.47886 6.8275 4.50713 6.76051C4.5354 6.69351 4.55011 6.62157 4.55041 6.54884V5.05371H6.04361C6.11624 5.05341 6.1881 5.03868 6.255 5.01037C6.32191 4.98206 6.38254 4.94074 6.43338 4.8888L7.4929 3.82792L8.55241 4.8888C8.60325 4.94074 8.66388 4.98206 8.73079 5.01037C8.7977 5.03868 8.86955 5.05341 8.94218 5.05371H10.4354V6.54884C10.4357 6.62157 10.4504 6.69351 10.4787 6.76051C10.5069 6.8275 10.5482 6.88821 10.6001 6.93912L11.6596 8L10.6001 9.06089Z" fill="#96ADFB"/>
<path d="M11.8555 7.68069L10.8 6.65078V5.13966C10.8 5.02038 10.7527 4.90599 10.6684 4.82164C10.5842 4.7373 10.47 4.68992 10.3508 4.68992H8.86412L7.81309 3.63303C7.77134 3.59088 7.72166 3.55742 7.66692 3.53459C7.61219 3.51176 7.55348 3.5 7.49419 3.5C7.43489 3.5 7.37619 3.51176 7.32145 3.53459C7.26672 3.55742 7.21704 3.59088 7.17529 3.63303L6.14671 4.68992H4.63754C4.51842 4.68992 4.40417 4.7373 4.31994 4.82164C4.2357 4.90599 4.18838 5.02038 4.18838 5.13966V6.65078L3.13286 7.68069C3.09076 7.72249 3.05735 7.77224 3.03454 7.82704C3.01174 7.88185 3 7.94063 3 8C3 8.05937 3.01174 8.11815 3.03454 8.17296C3.05735 8.22776 3.09076 8.27751 3.13286 8.31931L4.18838 9.3717V10.8603C4.18838 10.9796 4.2357 11.094 4.31994 11.1784C4.40417 11.2627 4.51842 11.3101 4.63754 11.3101H6.14671L7.19774 12.367C7.2395 12.4091 7.28918 12.4426 7.34391 12.4654C7.39864 12.4882 7.45735 12.5 7.51665 12.5C7.57594 12.5 7.63465 12.4882 7.68938 12.4654C7.74412 12.4426 7.79379 12.4091 7.83555 12.367L8.88658 11.3101H10.3733C10.4924 11.3101 10.6067 11.2627 10.6909 11.1784C10.7751 11.094 10.8225 10.9796 10.8225 10.8603V9.3717L11.878 8.31931C11.9186 8.27604 11.9503 8.22512 11.9712 8.16951C11.9921 8.1139 12.0018 8.05469 11.9997 7.99531C11.9976 7.93593 11.9838 7.87755 11.9591 7.82355C11.9343 7.76955 11.8991 7.72099 11.8555 7.68069ZM10.0364 8.868C9.99398 8.90965 9.96022 8.95932 9.93709 9.01413C9.91396 9.06894 9.90192 9.12781 9.90168 9.18731V10.4106H8.67997C8.62054 10.4108 8.56175 10.4229 8.50701 10.4461C8.45227 10.4692 8.40266 10.503 8.36106 10.5455L7.49419 11.4135L6.62731 10.5455C6.58571 10.503 6.53611 10.4692 6.48137 10.4461C6.42662 10.4229 6.36784 10.4108 6.30841 10.4106H5.0867V9.18731C5.08645 9.12781 5.07442 9.06894 5.05129 9.01413C5.02816 8.95932 4.99439 8.90965 4.95195 8.868L4.08508 8L4.95195 7.132C4.99439 7.09035 5.02816 7.04068 5.05129 6.98587C5.07442 6.93106 5.08645 6.87219 5.0867 6.81269V5.5894H6.30841C6.36784 5.58915 6.42662 5.5771 6.48137 5.55394C6.53611 5.53078 6.58571 5.49697 6.62731 5.45448L7.49419 4.58648L8.36106 5.45448C8.40266 5.49697 8.45227 5.53078 8.50701 5.55394C8.56175 5.5771 8.62054 5.58915 8.67997 5.5894H9.90168V6.81269C9.90192 6.87219 9.91396 6.93106 9.93709 6.98587C9.96022 7.04068 9.99398 7.09035 10.0364 7.132L10.9033 8L10.0364 8.868Z" fill="#96ADFB"/>
<path d="M5.71181 7.73916L5.71183 7.73914L5.70966 7.73741C5.66038 7.69815 5.60367 7.66839 5.54325 7.64874C5.48282 7.6291 5.41898 7.61966 5.35514 7.62057C5.29131 7.62148 5.22779 7.63274 5.16802 7.65417C5.10827 7.67559 5.05256 7.70709 5.00467 7.74799L5.00467 7.74799C4.95673 7.78893 4.91718 7.83885 4.88997 7.89581C4.86269 7.95293 4.84875 8.01522 4.85009 8.07877C4.85142 8.14231 4.86794 8.20395 4.89742 8.25991C4.92661 8.31531 4.96758 8.36346 5.01641 8.4026L6.38123 9.52851C6.38131 9.52857 6.38139 9.52864 6.38147 9.52871C6.42937 9.5685 6.48485 9.5989 6.54417 9.61928C6.6036 9.63971 6.6666 9.65 6.72975 9.65C6.79289 9.65 6.85589 9.63971 6.91532 9.61928C6.97462 9.59891 7.03009 9.56852 7.07797 9.52875C7.07807 9.52867 7.07817 9.52859 7.07827 9.52851L9.97886 7.13567C10.0297 7.09643 10.0724 7.04746 10.1026 6.99063C10.1334 6.93267 10.15 6.86852 10.15 6.80254C10.15 6.73655 10.1334 6.6724 10.1026 6.61444C10.0724 6.55762 10.0297 6.50865 9.97888 6.46942C9.9315 6.43055 9.87683 6.40078 9.81844 6.38072C9.75901 6.36029 9.69601 6.35 9.63286 6.35C9.56972 6.35 9.50672 6.36029 9.44729 6.38072C9.38796 6.40111 9.33246 6.43152 9.28455 6.47132C9.28448 6.47138 9.28442 6.47144 9.28435 6.47149L6.72984 8.58167L5.71181 7.73916Z" fill="white" stroke="white" stroke-width="0.3"/>
</svg>
