<svg width="20" height="22" viewBox="0 0 20 22" fill="none" xmlns="http://www.w3.org/2000/svg">
<path d="M13.75 6V3.5C13.75 2.83696 13.4866 2.20107 13.0178 1.73223C12.5489 1.26339 11.913 1 11.25 1H3.75C3.08696 1 2.45107 1.26339 1.98223 1.73223C1.51339 2.20107 1.25 2.83696 1.25 3.5V13.5C1.25 14.163 1.51339 14.7989 1.98223 15.2678C2.45107 15.7366 3.08696 16 3.75 16H6.25M8.75 6H16.25C17.6307 6 18.75 7.11929 18.75 8.5V18.5C18.75 19.8807 17.6307 21 16.25 21H8.75C7.36929 21 6.25 19.8807 6.25 18.5V8.5C6.25 7.11929 7.36929 6 8.75 6Z" stroke="#FAFAFA" stroke-width="1.8" stroke-linecap="round" stroke-linejoin="round"/>
</svg>
