<svg width="22" height="26" viewBox="0 0 22 26" fill="none" xmlns="http://www.w3.org/2000/svg">
<path d="M7.25 6.75V3C7.25 2.66848 7.3817 2.35054 7.61612 2.11612C7.85054 1.8817 8.16848 1.75 8.5 1.75H13.5C13.8315 1.75 14.1495 1.8817 14.3839 2.11612C14.6183 2.35054 14.75 2.66848 14.75 3V6.75M1 6.75H21H1ZM8.5 11.75V19.25V11.75ZM13.5 11.75V19.25V11.75ZM2.25 6.75L3.5 21.75C3.5 22.413 3.76339 23.0489 4.23223 23.5178C4.70107 23.9866 5.33696 24.25 6 24.25H16C16.663 24.25 17.2989 23.9866 17.7678 23.5178C18.2366 23.0489 18.5 22.413 18.5 21.75L19.75 6.75H2.25Z" stroke="#FAFAFA" stroke-width="1.8" stroke-linecap="round" stroke-linejoin="round"/>
</svg>
