<svg width="20" height="12" viewBox="0 0 20 12" fill="none" xmlns="http://www.w3.org/2000/svg">
<path opacity="0.5" fill-rule="evenodd" clip-rule="evenodd" d="M17.0618 0.246948H18.0764C18.7763 0.246948 19.3438 0.813448 19.3438 1.51085V10.6078C19.3438 11.3052 18.7763 11.8717 18.0764 11.8717H17.0618C16.3608 11.8717 15.7944 11.3052 15.7944 10.6078V1.51085C15.7944 0.813448 16.3608 0.246948 17.0618 0.246948Z" fill="white"/>
<path fill-rule="evenodd" clip-rule="evenodd" d="M11.9891 2.77399H13.0037C13.7047 2.77399 14.2711 3.33939 14.2711 4.03789V10.6082C14.2711 11.3056 13.7047 11.8721 13.0037 11.8721H11.9891C11.288 11.8721 10.7217 11.3056 10.7217 10.6082V4.03789C10.7217 3.33939 11.288 2.77399 11.9891 2.77399Z" fill="white"/>
<path fill-rule="evenodd" clip-rule="evenodd" d="M6.91681 5.30112H7.93139C8.63244 5.30112 9.19879 5.86652 9.19879 6.56392V10.6075C9.19879 11.3049 8.63244 11.8714 7.93139 11.8714H6.91681C6.21577 11.8714 5.64941 11.3049 5.64941 10.6075V6.56392C5.64941 5.86652 6.21577 5.30112 6.91681 5.30112Z" fill="white"/>
<path fill-rule="evenodd" clip-rule="evenodd" d="M1.84406 6.81735H2.85864C3.55968 6.81735 4.12604 7.38275 4.12604 8.08015V10.608C4.12604 11.3054 3.55968 11.8719 2.85864 11.8719H1.84406C1.14412 11.8719 0.57666 11.3054 0.57666 10.608V8.08015C0.57666 7.38275 1.14412 6.81735 1.84406 6.81735Z" fill="white"/>
</svg>
