<svg width="16" height="20" viewBox="0 0 16 20" fill="none" xmlns="http://www.w3.org/2000/svg">
<path d="M4 9V5C4 3.93913 4.42143 2.92172 5.17157 2.17157C5.92172 1.42143 6.93913 1 8 1C9.06087 1 10.0783 1.42143 10.8284 2.17157C11.5786 2.92172 12 3.93913 12 5V9M3 9H13C14.1046 9 15 9.89543 15 11V17C15 18.1046 14.1046 19 13 19H3C1.89543 19 1 18.1046 1 17V11C1 9.89543 1.89543 9 3 9ZM9 14C9 14.5523 8.55228 15 8 15C7.44772 15 7 14.5523 7 14C7 13.4477 7.44772 13 8 13C8.55228 13 9 13.4477 9 14Z" stroke="black" stroke-width="2" stroke-linecap="round" stroke-linejoin="round"/>
</svg>
