<svg width="20" height="20" viewBox="0 0 20 20" fill="none" xmlns="http://www.w3.org/2000/svg">
<path d="M6 8.49775C6 8.77381 5.77614 8.9976 5.5 8.9976C5.22386 8.9976 5 8.77381 5 8.49775C5 8.22169 5.22386 7.9979 5.5 7.9979C5.77614 7.9979 6 8.22169 6 8.49775Z" fill="black"/>
<path d="M10.5 5.49865C10.5 5.77471 10.2761 5.9985 10 5.9985C9.72386 5.9985 9.5 5.77471 9.5 5.49865C9.5 5.22259 9.72386 4.9988 10 4.9988C10.2761 4.9988 10.5 5.22259 10.5 5.49865Z" fill="black"/>
<path d="M15 8.49775C15 8.77381 14.7761 8.9976 14.5 8.9976C14.2239 8.9976 14 8.77381 14 8.49775C14 8.22169 14.2239 7.9979 14.5 7.9979C14.7761 7.9979 15 8.22169 15 8.49775Z" fill="black"/>
<path d="M6 8.49775C6 8.77381 5.77614 8.9976 5.5 8.9976C5.22386 8.9976 5 8.77381 5 8.49775C5 8.22169 5.22386 7.9979 5.5 7.9979C5.77614 7.9979 6 8.22169 6 8.49775Z" stroke="black" stroke-width="2" stroke-linecap="round" stroke-linejoin="round"/>
<path d="M10.5 5.49865C10.5 5.77471 10.2761 5.9985 10 5.9985C9.72386 5.9985 9.5 5.77471 9.5 5.49865C9.5 5.22259 9.72386 4.9988 10 4.9988C10.2761 4.9988 10.5 5.22259 10.5 5.49865Z" stroke="black" stroke-width="2" stroke-linecap="round" stroke-linejoin="round"/>
<path d="M15 8.49775C15 8.77381 14.7761 8.9976 14.5 8.9976C14.2239 8.9976 14 8.77381 14 8.49775C14 8.22169 14.2239 7.9979 14.5 7.9979C14.7761 7.9979 15 8.22169 15 8.49775Z" stroke="black" stroke-width="2" stroke-linecap="round" stroke-linejoin="round"/>
</svg>
