<svg width="20" height="20" viewBox="0 0 20 20" fill="none" xmlns="http://www.w3.org/2000/svg">
<path d="M2.75891 18.6301L3.11916 19.6164C3.16306 19.6004 3.20584 19.5814 3.24721 19.5597L2.75891 18.6301ZM1.99566 17.8797L2.97788 18.2508C2.98214 18.2396 2.9862 18.2282 2.99007 18.2168L1.99566 17.8797ZM1.99566 2.12033L2.99007 1.7832C2.9862 1.7718 2.98214 1.76047 2.97788 1.74921L1.99566 2.12033ZM2.75891 1.36988L3.24721 0.440334C3.20584 0.4186 3.16306 0.399652 3.11916 0.383617L2.75891 1.36988ZM17.1252 11.0833L17.6135 12.0129L17.6135 12.0129L17.1252 11.0833ZM17.1252 8.91668L16.6369 9.84622H16.6369L17.1252 8.91668ZM17.7943 9.26819L17.306 10.1977C17.3225 10.2064 17.3393 10.2147 17.3562 10.2224L17.7943 9.26819ZM17.7943 10.7318L17.3562 9.77759C17.3393 9.78537 17.3225 9.7936 17.306 9.80228L17.7943 10.7318ZM17.5713 9.15102L18.0596 8.22147L18.0596 8.22147L17.5713 9.15102ZM17.5713 10.849L18.0596 11.7785L18.0596 11.7785L17.5713 10.849ZM17.3482 10.9662L16.8599 10.0366L16.8599 10.0366L17.3482 10.9662ZM10.0835 11.05C10.6634 11.05 11.1335 10.5799 11.1335 10C11.1335 9.42011 10.6634 8.95001 10.0835 8.95001V11.05ZM2.39866 17.6439C2.47818 17.6148 2.56374 17.609 2.64587 17.6266L2.20532 19.6799C2.50958 19.7452 2.82651 19.7233 3.11916 19.6164L2.39866 17.6439ZM2.64587 17.6266C2.72807 17.6443 2.80566 17.6852 2.86853 17.747L1.39622 19.2444C1.61986 19.4643 1.901 19.6146 2.20532 19.6799L2.64587 17.6266ZM2.86853 17.747C2.93158 17.809 2.97714 17.8895 2.9972 17.9799L0.947089 18.4349C1.01563 18.7437 1.17241 19.0244 1.39622 19.2444L2.86853 17.747ZM2.9972 17.9799C3.0173 18.0704 3.01041 18.1647 2.97788 18.2508L1.01343 17.5086C0.901729 17.8042 0.878524 18.126 0.947089 18.4349L2.9972 17.9799ZM2.99007 18.2168L5.66144 10.3371L3.67262 9.66289L1.00125 17.5426L2.99007 18.2168ZM5.66144 9.66289L2.99007 1.7832L1.00125 2.45745L3.67262 10.3371L5.66144 9.66289ZM2.97788 1.74921C3.01041 1.83529 3.0173 1.92957 2.9972 2.02011L0.947088 1.5651C0.878522 1.87404 0.901731 2.19582 1.01343 2.49145L2.97788 1.74921ZM2.9972 2.02011C2.97713 2.11053 2.93157 2.19104 2.86853 2.25302L1.39622 0.755593C1.17242 0.97564 1.01563 1.25628 0.947088 1.5651L2.9972 2.02011ZM2.86853 2.25302C2.80566 2.31484 2.72807 2.35576 2.64587 2.3734L2.20532 0.320129C1.90099 0.385426 1.61986 0.535711 1.39622 0.755593L2.86853 2.25302ZM2.64587 2.3734C2.56374 2.39102 2.47818 2.3852 2.39865 2.35615L3.11916 0.383617C2.82651 0.276721 2.50957 0.254849 2.20532 0.320129L2.64587 2.3734ZM17.6135 7.98713L3.24721 0.440334L2.2706 2.29943L16.6369 9.84622L17.6135 7.98713ZM17.7943 9.26819C17.3562 10.2224 17.3557 10.2222 17.3552 10.222C17.3551 10.2219 17.3546 10.2217 17.3542 10.2215C17.3536 10.2212 17.3529 10.2209 17.3523 10.2206C17.351 10.22 17.3497 10.2194 17.3484 10.2188C17.3459 10.2176 17.3434 10.2164 17.341 10.2153C17.3362 10.213 17.3317 10.2108 17.3274 10.2086C17.3188 10.2043 17.3112 10.2003 17.3043 10.1965C17.2908 10.189 17.2797 10.1821 17.2704 10.1758C17.2528 10.1639 17.2361 10.1503 17.2204 10.1327C17.2036 10.114 17.1861 10.0889 17.1733 10.058C17.1671 10.0429 17.1631 10.0291 17.1608 10.0175C17.1585 10.006 17.1585 9.99966 17.1585 10H19.2585C19.2585 9.43279 19.0325 9.00752 18.7825 8.72923C18.6632 8.59643 18.543 8.50141 18.4477 8.43691C18.3996 8.40432 18.3561 8.37839 18.3199 8.35838C18.3017 8.34833 18.2852 8.33968 18.2706 8.33233C18.2633 8.32865 18.2564 8.32529 18.25 8.32223C18.2468 8.3207 18.2438 8.31925 18.2408 8.31787C18.2394 8.31718 18.2379 8.31651 18.2365 8.31586C18.2358 8.31553 18.2351 8.31521 18.2345 8.31489C18.2341 8.31473 18.2336 8.3145 18.2334 8.31442C18.2329 8.31419 18.2324 8.31395 17.7943 9.26819ZM16.6369 10.1538L2.2706 17.7006L3.24721 19.5597L17.6135 12.0129L16.6369 10.1538ZM17.1585 10C17.1585 10.0004 17.1585 9.99404 17.1608 9.98248C17.1631 9.97093 17.1671 9.95708 17.1733 9.94199C17.1861 9.91116 17.2036 9.88599 17.2204 9.86729C17.2361 9.84974 17.2528 9.83611 17.2704 9.8242C17.2797 9.81789 17.2908 9.81105 17.3043 9.80355C17.3112 9.79977 17.3188 9.79572 17.3274 9.79142C17.3317 9.78927 17.3362 9.78704 17.341 9.78474C17.3434 9.78358 17.3459 9.78241 17.3484 9.78122C17.3497 9.78063 17.351 9.78002 17.3523 9.77942C17.3529 9.77912 17.3536 9.77881 17.3542 9.77851C17.3546 9.77835 17.3551 9.77812 17.3552 9.77805C17.3557 9.77782 17.3562 9.77759 17.7943 10.7318C18.2324 11.6861 18.2329 11.6858 18.2334 11.6856C18.2336 11.6855 18.2341 11.6853 18.2345 11.6851C18.2351 11.6848 18.2358 11.6845 18.2365 11.6842C18.2379 11.6835 18.2394 11.6828 18.2408 11.6821C18.2438 11.6808 18.2468 11.6793 18.25 11.6778C18.2564 11.6747 18.2633 11.6714 18.2706 11.6677C18.2852 11.6603 18.3017 11.6517 18.3199 11.6416C18.3561 11.6216 18.3996 11.5957 18.4477 11.5631C18.543 11.4986 18.6632 11.4036 18.7825 11.2708C19.0325 10.9925 19.2585 10.5672 19.2585 10H17.1585ZM18.2826 8.33865L18.0596 8.22147L17.083 10.0806L17.306 10.1977L18.2826 8.33865ZM17.306 9.80228L17.083 9.91945L18.0596 11.7785L18.2826 11.6614L17.306 9.80228ZM18.0596 8.22147L17.8365 8.1043L16.8599 9.9634L17.083 10.0806L18.0596 8.22147ZM17.8365 8.1043L17.6135 7.98713L16.6369 9.84622L16.8599 9.9634L17.8365 8.1043ZM17.083 9.91945L16.8599 10.0366L17.8365 11.8957L18.0596 11.7785L17.083 9.91945ZM16.8599 10.0366L16.6369 10.1538L17.6135 12.0129L17.8365 11.8957L16.8599 10.0366ZM4.66703 11.05H10.0835V8.95001H4.66703V11.05Z" fill="#232323"/>
</svg>
