<svg width="32" height="32" viewBox="0 0 32 32" fill="none" xmlns="http://www.w3.org/2000/svg">
<path d="M11.25 11.25H11.2658M20.75 11.25H20.7658M11.5217 22.0617C12.7094 23.2494 14.3203 23.9167 16 23.9167C17.6797 23.9167 19.2906 23.2494 20.4783 22.0617C21.2851 21.2549 21.8518 20.2529 22.1322 19.1667H9.86776C10.1482 20.2529 10.7149 21.2549 11.5217 22.0617ZM30.25 16C30.25 23.8701 23.8701 30.25 16 30.25C8.12994 30.25 1.75 23.8701 1.75 16C1.75 8.12994 8.12994 1.75 16 1.75C23.8701 1.75 30.25 8.12994 30.25 16Z" stroke="#FAFAFA" stroke-opacity="0.6" stroke-width="2.5" stroke-linecap="round" stroke-linejoin="round"/>
</svg>
