<svg width="17" height="12" viewBox="0 0 17 12" fill="none" xmlns="http://www.w3.org/2000/svg">
<path fill-rule="evenodd" clip-rule="evenodd" d="M8.45811 7.50693C7.28015 7.50693 6.29759 8.30443 6.0249 9.37583L8.57293 11.8717L10.9311 9.56173C10.7323 8.39683 9.70452 7.50693 8.45811 7.50693Z" fill="white"/>
<path fill-rule="evenodd" clip-rule="evenodd" d="M8.45774 3.97549C6.29941 3.97549 4.40605 5.07219 3.31641 6.72439L4.8885 8.26219C5.53655 6.96529 6.88343 6.06549 8.45774 6.06549C10.0917 6.06549 11.4937 7.03019 12.1098 8.40849L13.6863 6.86409C12.6132 5.13489 10.6757 3.97549 8.45774 3.97549Z" fill="white"/>
<path opacity="0.5" fill-rule="evenodd" clip-rule="evenodd" d="M8.45795 0.246368C5.25082 0.246368 2.4058 1.74237 0.59082 4.05457L2.17175 5.60227C3.56942 3.67727 5.86133 2.41667 8.45795 2.41667C11.1131 2.41667 13.4547 3.73117 14.8424 5.73097L16.4244 4.18327C14.6139 1.79847 11.7247 0.246368 8.45795 0.246368Z" fill="white"/>
</svg>
