<svg width="60" height="60" viewBox="0 0 60 60" fill="none" xmlns="http://www.w3.org/2000/svg">
<path fill-rule="evenodd" clip-rule="evenodd" d="M55.7088 45.4702C58.4328 40.953 60 35.6595 60 30C60 13.4315 46.5685 0 30 0C13.4315 0 0 13.4315 0 30C0 46.5685 13.4315 60 30 60C35.6595 60 40.953 58.4328 45.4702 55.7088C45.1659 54.8628 45 53.9508 45 53C45 48.5817 48.5817 45 53 45C53.9508 45 54.8628 45.1659 55.7088 45.4702Z" fill="#464646"/>
<path d="M30.4269 30.824H34.8729V34.074C33.7549 34.88 32.2989 35.348 30.9469 35.348C27.6189 35.348 24.8109 32.488 24.8109 29.056C24.8109 25.65 27.6189 22.79 30.9469 22.79C32.6889 22.79 34.6129 23.57 35.7309 24.87L38.0449 22.712C36.3289 20.918 33.5469 19.826 30.9469 19.826C25.8249 19.826 21.5089 24.038 21.5089 29.056C21.5089 34.074 25.8249 38.312 30.9469 38.312C33.5469 38.312 36.3289 37.194 38.0449 35.4V28.172H30.4269V30.824Z" fill="#FAFAFA" fill-opacity="0.5"/>
<circle cx="53" cy="53" r="5" fill="#96ADFB"/>
</svg>
